<svg viewBox="512.5 396.8743 380 101.2515" width="5000" height="1332.2565789473683" xmlns="http://www.w3.org/2000/svg" xmlns:xlink="http://www.w3.org/1999/xlink" preserveAspectRatio="none"><defs></defs><style>.a6izo4zJpcolor {fill:#08376B;fill-opacity:1;}.aD6z1nYkhcolor {fill:#08376B;fill-opacity:1;}.aIptOCySncolors-0 {fill:#B0522F;fill-opacity:1;}.aIptOCySncolors-1 {fill:#9AEBA6;fill-opacity:1;}.companyName {fill:#08376B;fill-opacity:1;}.icon3 {fill:#2F90B0;fill-opacity:1;}.icon3-str {stroke:#2F90B0;stroke-opacity:1;}.shapeStroke-str {stroke:#08376B;stroke-opacity:1;}</style><g opacity="1" transform="rotate(0 512.5 408.0582)">
<svg width="87.4338" height="78.8837" x="512.5" y="408.0582" version="1.1" preserveAspectRatio="none" viewBox="21.239999771118164 28.5 158.76002502441406 143.23500061035156">
  <g transform="matrix(1 0 0 1 0 0)" ><g><path d="M72.499 131.239L21.24 169.4l1.713 2.335 56.046-41.789-6.5 1.293z" data-color="1" class="aIptOCySncolors-0"></path><path d="M133.997 48.344a4.49 4.49 0 0 0-.638-.492l-.259-5.78a27.509 27.509 0 0 0-7.731 5.728c-.925.976-1.764 2-2.518 3.067l-.856 1.244c-.028.047-.055.061-.082.062h4.6a4.417 4.417 0 0 0 1.337 2.656 4.477 4.477 0 0 0 6.321-.173 4.468 4.468 0 0 0-.174-6.312z" data-color="2" class="aIptOCySncolors-1"></path><path d="M121.663 52.172h.239c-.081-.008-.157-.142-.239 0z" data-color="2" class="aIptOCySncolors-1"></path><path d="M121.913 52.172h-.011.011z" data-color="2" class="aIptOCySncolors-1"></path><path d="M160.41 31.574a19.787 19.787 0 0 0-10.59-3.074c-10.973 0-19.867 8.886-19.867 19.847 0 6.525 3.163 12.293 8.028 15.913l-67.375 68.376c63.873-9.044 97.776-28.696 106.165-52.549l.204-.073A38.296 38.296 0 0 0 180 65.054c0-14.369-7.9-26.885-19.59-33.48z" data-color="1" class="aIptOCySncolors-0"></path><path d="M118.491 120.13v9.203h-1.468v-9.203h1.468z" data-color="1" class="aIptOCySncolors-0"></path><path d="M117.757 142.031a6.541 6.541 0 0 1-4.005-1.353 6.689 6.689 0 0 1-1.889-2.269l1.309-.664a5.21 5.21 0 0 0 1.472 1.767 5.08 5.08 0 0 0 3.113 1.052c2.829 0 5.129-2.3 5.129-5.126s-2.301-5.126-5.129-5.126a5.066 5.066 0 0 0-3.777 1.658l-1.082-.992a6.609 6.609 0 0 1 4.859-2.133c3.638 0 6.597 2.957 6.597 6.593s-2.959 6.593-6.597 6.593z" data-color="1" class="aIptOCySncolors-0"></path><path d="M137.983 64.242l-27.19 25.949-5.828 5.58-50.585 49.451c36.496-15.108 92.601-23.238 97.594-56.33.445-1.633.716-3.338.734-5.113.094-9.296-6.164-17.162-14.725-19.537z" data-color="2" class="aIptOCySncolors-1"></path><path d="M149.192 44.668a3.672 3.672 0 0 1-3.677 3.672 3.67 3.67 0 0 1-3.674-3.672 3.673 3.673 0 0 1 3.674-3.676 3.675 3.675 0 0 1 3.677 3.676z" data-color="2" class="aIptOCySncolors-1"></path><path d="M145.515 45.625a.96.96 0 0 1-.961-.957.959.959 0 0 1 1.916 0 .958.958 0 0 1-.955.957z" data-color="1" class="aIptOCySncolors-0"></path><path d="M109.005 91.918l-3.94 3.772-.974.953-6.561 17.442 45.326-7.503a39.302 39.302 0 0 0 3.006-3.471l-43.794 7.249 6.937-18.442zm-24.76 24.125l-4.962 4.851-4.445 11.818 29.805-4.934c4.433-1.612 8.748-3.301 12.862-5.102l-38.128 6.311 4.868-12.944zm65.424-43.303l-2.218.367.845-2.246a20.33 20.33 0 0 0-2.254-2.348l-3.129 8.319 8.218-1.36a19.813 19.813 0 0 0-1.462-2.732zm-53.02 31.178l-4.962 4.851-5.502 14.63 44.364-7.343a72.485 72.485 0 0 0 5.964-3.96l-45.79 7.579 5.926-15.757zm24.594-23.685l-4.894 4.672-7.472 19.867 40.155-6.646a30.494 30.494 0 0 0 1.448-3.213l-37.065 6.134 7.828-20.814zm-49.402 47.936l-4.962 4.852-3.233 8.596c4.757-1.722 9.713-3.382 14.753-5.033L68.031 138.3l3.81-10.131zm61.636-59.612l-4.894 4.672-8.361 22.23 31.563-5.225c.095-.474.216-.935.289-1.421.148-.544.27-1.1.376-1.662l-27.69 4.583 8.717-23.177zm19.296 14.078a19.877 19.877 0 0 0-.338-2.918l-16.33 2.703 6.216-16.528a20.01 20.01 0 0 0-2.677-1.226l-8.078 21.479 21.207-3.51z" data-color="1" class="aIptOCySncolors-0"></path></g></g>
</svg>
</g><g opacity="1" transform="rotate(0 628.2664 469.1968)">
<svg width="160.8763" height="17.7451" x="628.2664" y="469.1968" version="1.1" preserveAspectRatio="none" viewBox="0.44 -30.88 352.91999999999996 38.92">
  <g transform="matrix(1 0 0 1 0 0)" class="a6izo4zJpcolor"><path id="id-6izo4zJp16" d="M14.72-4.72L16.12-1.16Q15.24-0.44 13.98-0.08Q12.72 0.28 11.32 0.28L11.32 0.28Q7.80 0.28 5.88-1.56Q3.96-3.40 3.96-6.92L3.96-6.92L3.96-17.20L0.44-17.20L0.44-21.20L3.96-21.20L3.96-26.08L8.96-26.08L8.96-21.20L14.68-21.20L14.68-17.20L8.96-17.20L8.96-7.04Q8.96-5.48 9.72-4.66Q10.48-3.84 11.92-3.84L11.92-3.84Q13.60-3.84 14.72-4.72L14.72-4.72Z M33.56-21.60Q37.60-21.60 40.04-19.24Q42.48-16.88 42.48-12.24L42.48-12.24L42.48 0L37.48 0L37.48-11.60Q37.48-14.40 36.16-15.82Q34.84-17.24 32.40-17.24L32.40-17.24Q29.64-17.24 28.04-15.58Q26.44-13.92 26.44-10.80L26.44-10.80L26.44 0L21.44 0L21.44-29.68L26.44-29.68L26.44-18.88Q27.68-20.20 29.50-20.90Q31.32-21.60 33.56-21.60L33.56-21.60Z M70.32-10.56Q70.32-10.04 70.24-9.08L70.24-9.08L53.48-9.08Q53.92-6.72 55.78-5.34Q57.64-3.96 60.40-3.96L60.40-3.96Q63.92-3.96 66.20-6.28L66.20-6.28L68.88-3.20Q67.44-1.48 65.24-0.60Q63.04 0.28 60.28 0.28L60.28 0.28Q56.76 0.28 54.08-1.12Q51.40-2.52 49.94-5.02Q48.48-7.52 48.48-10.68L48.48-10.68Q48.48-13.80 49.90-16.30Q51.32-18.80 53.84-20.20Q56.36-21.60 59.52-21.60L59.52-21.60Q62.64-21.60 65.10-20.22Q67.56-18.84 68.94-16.34Q70.32-13.84 70.32-10.56L70.32-10.56ZM59.52-17.60Q57.12-17.60 55.46-16.18Q53.80-14.76 53.44-12.40L53.44-12.40L65.56-12.40Q65.24-14.72 63.60-16.16Q61.96-17.60 59.52-17.60L59.52-17.60Z M93.32-18.24Q95.48-21.60 100.92-21.60L100.92-21.60L100.92-16.84Q100.28-16.96 99.76-16.96L99.76-16.96Q96.84-16.96 95.20-15.26Q93.56-13.56 93.56-10.36L93.56-10.36L93.56 0L88.56 0L88.56-21.36L93.32-21.36L93.32-18.24Z M122.24-21.36L127.24-21.36L127.24 0L122.48 0L122.48-2.72Q121.28-1.28 119.48-0.50Q117.68 0.28 115.60 0.28L115.60 0.28Q111.32 0.28 108.86-2.10Q106.40-4.48 106.40-9.16L106.40-9.16L106.40-21.36L111.40-21.36L111.40-9.84Q111.40-6.96 112.70-5.54Q114.00-4.12 116.40-4.12L116.40-4.12Q119.08-4.12 120.66-5.78Q122.24-7.44 122.24-10.56L122.24-10.56L122.24-21.36Z M135 0L135-29.68L140-29.68L140 0L135 0Z M167.84-10.56Q167.84-10.04 167.76-9.08L167.76-9.08L151-9.08Q151.44-6.72 153.30-5.34Q155.16-3.96 157.92-3.96L157.92-3.96Q161.44-3.96 163.72-6.28L163.72-6.28L166.40-3.20Q164.96-1.48 162.76-0.60Q160.56 0.28 157.80 0.28L157.80 0.28Q154.28 0.28 151.60-1.12Q148.92-2.52 147.46-5.02Q146-7.52 146-10.68L146-10.68Q146-13.80 147.42-16.30Q148.84-18.80 151.36-20.20Q153.88-21.60 157.04-21.60L157.04-21.60Q160.16-21.60 162.62-20.22Q165.08-18.84 166.46-16.34Q167.84-13.84 167.84-10.56L167.84-10.56ZM157.04-17.60Q154.64-17.60 152.98-16.18Q151.32-14.76 150.96-12.40L150.96-12.40L163.08-12.40Q162.76-14.72 161.12-16.16Q159.48-17.60 157.04-17.60L157.04-17.60Z M180.44 0.28Q177.84 0.28 175.36-0.40Q172.88-1.08 171.40-2.12L171.40-2.12L173.32-5.92Q174.76-4.96 176.78-4.38Q178.80-3.80 180.76-3.80L180.76-3.80Q185.24-3.80 185.24-6.16L185.24-6.16Q185.24-7.28 184.10-7.72Q182.96-8.16 180.44-8.56L180.44-8.56Q177.80-8.96 176.14-9.48Q174.48-10 173.26-11.30Q172.04-12.60 172.04-14.92L172.04-14.92Q172.04-17.96 174.58-19.78Q177.12-21.60 181.44-21.60L181.44-21.60Q183.64-21.60 185.84-21.10Q188.04-20.60 189.44-19.76L189.44-19.76L187.52-15.96Q184.80-17.56 181.40-17.56L181.40-17.56Q179.20-17.56 178.06-16.90Q176.92-16.24 176.92-15.16L176.92-15.16Q176.92-13.96 178.14-13.46Q179.36-12.96 181.92-12.52L181.92-12.52Q184.48-12.12 186.12-11.60Q187.76-11.08 188.94-9.84Q190.12-8.60 190.12-6.32L190.12-6.32Q190.12-3.32 187.52-1.52Q184.92 0.28 180.44 0.28L180.44 0.28Z M227.96-10.56Q227.96-10.04 227.88-9.08L227.88-9.08L211.12-9.08Q211.56-6.72 213.42-5.34Q215.28-3.96 218.04-3.96L218.04-3.96Q221.56-3.96 223.84-6.28L223.84-6.28L226.52-3.20Q225.08-1.48 222.88-0.60Q220.68 0.28 217.92 0.28L217.92 0.28Q214.40 0.28 211.72-1.12Q209.04-2.52 207.58-5.02Q206.12-7.52 206.12-10.68L206.12-10.68Q206.12-13.80 207.54-16.30Q208.96-18.80 211.48-20.20Q214.00-21.60 217.16-21.60L217.16-21.60Q220.28-21.60 222.74-20.22Q225.20-18.84 226.58-16.34Q227.96-13.84 227.96-10.56L227.96-10.56ZM217.16-17.60Q214.76-17.60 213.10-16.18Q211.44-14.76 211.08-12.40L211.08-12.40L223.20-12.40Q222.88-14.72 221.24-16.16Q219.60-17.60 217.16-17.60L217.16-17.60Z M246.08-21.60Q250.12-21.60 252.56-19.24Q255.00-16.88 255.00-12.24L255.00-12.24L255.00 0L250.00 0L250.00-11.60Q250.00-14.40 248.68-15.82Q247.36-17.24 244.92-17.24L244.92-17.24Q242.16-17.24 240.56-15.58Q238.96-13.92 238.96-10.80L238.96-10.80L238.96 0L233.96 0L233.96-21.36L238.72-21.36L238.72-18.60Q239.96-20.08 241.84-20.84Q243.72-21.60 246.08-21.60L246.08-21.60Z M279.20-21.36L283.96-21.36L283.96-3.24Q283.96 8.04 272.44 8.04L272.44 8.04Q269.36 8.04 266.60 7.26Q263.84 6.48 262.04 5L262.04 5L264.28 1.24Q265.68 2.40 267.82 3.10Q269.96 3.80 272.16 3.80L272.16 3.80Q275.68 3.80 277.32 2.20Q278.96 0.60 278.96-2.68L278.96-2.68L278.96-3.80Q277.68-2.40 275.84-1.68Q274.00-0.96 271.80-0.96L271.80-0.96Q268.76-0.96 266.30-2.26Q263.84-3.56 262.42-5.92Q261.00-8.28 261.00-11.32L261.00-11.32Q261.00-14.36 262.42-16.70Q263.84-19.04 266.30-20.32Q268.76-21.60 271.80-21.60L271.80-21.60Q274.12-21.60 276.02-20.84Q277.92-20.08 279.20-18.52L279.20-18.52L279.20-21.36ZM272.56-5.20Q275.40-5.20 277.22-6.90Q279.04-8.60 279.04-11.32L279.04-11.32Q279.04-14 277.22-15.68Q275.40-17.36 272.56-17.36L272.56-17.36Q269.68-17.36 267.86-15.68Q266.04-14 266.04-11.32L266.04-11.32Q266.04-8.60 267.86-6.90Q269.68-5.20 272.56-5.20L272.56-5.20Z M291.72 0L291.72-21.36L296.72-21.36L296.72 0L291.72 0ZM294.24-24.88Q292.88-24.88 291.96-25.74Q291.04-26.60 291.04-27.88L291.04-27.88Q291.04-29.16 291.96-30.02Q292.88-30.88 294.24-30.88L294.24-30.88Q295.60-30.88 296.52-30.06Q297.44-29.24 297.44-28L297.44-28Q297.44-26.68 296.54-25.78Q295.64-24.88 294.24-24.88L294.24-24.88Z M316.60-21.60Q320.64-21.60 323.08-19.24Q325.52-16.88 325.52-12.24L325.52-12.24L325.52 0L320.52 0L320.52-11.60Q320.52-14.40 319.20-15.82Q317.88-17.24 315.44-17.24L315.44-17.24Q312.68-17.24 311.08-15.58Q309.48-13.92 309.48-10.80L309.48-10.80L309.48 0L304.48 0L304.48-21.36L309.24-21.36L309.24-18.60Q310.48-20.08 312.36-20.84Q314.24-21.60 316.60-21.60L316.60-21.60Z M353.36-10.56Q353.36-10.04 353.28-9.08L353.28-9.08L336.52-9.08Q336.96-6.72 338.82-5.34Q340.68-3.96 343.44-3.96L343.44-3.96Q346.96-3.96 349.24-6.28L349.24-6.28L351.92-3.20Q350.48-1.48 348.28-0.60Q346.08 0.28 343.32 0.28L343.32 0.28Q339.80 0.28 337.12-1.12Q334.44-2.52 332.98-5.02Q331.52-7.52 331.52-10.68L331.52-10.68Q331.52-13.80 332.94-16.30Q334.36-18.80 336.88-20.20Q339.40-21.60 342.56-21.60L342.56-21.60Q345.68-21.60 348.14-20.22Q350.60-18.84 351.98-16.34Q353.36-13.84 353.36-10.56L353.36-10.56ZM342.56-17.60Q340.16-17.60 338.50-16.18Q336.84-14.76 336.48-12.40L336.48-12.40L348.60-12.40Q348.28-14.72 346.64-16.16Q345.00-17.60 342.56-17.60L342.56-17.60Z"/></g>
</svg>
</g><g opacity="1" transform="rotate(0 628.2664 408.0582)">
<svg width="264.2336" height="52.1915" x="628.2664" y="408.0582" version="1.1" preserveAspectRatio="none" viewBox="3.2 -26.16 183.08 36.16">
  <g transform="matrix(1 0 0 1 0 0)" class="aD6z1nYkhcolor"><path id="id-D6z1nYkh9" d="M3.20-20L3.20 10L6.60 10L6.60-3.28L6.76-3.28Q7.16-2.24 7.82-1.52Q8.48-0.80 9.32-0.36Q10.16 0.08 11.10 0.28Q12.04 0.48 13 0.48L13 0.48Q15 0.48 16.68-0.26Q18.36-1 19.58-2.36Q20.80-3.72 21.48-5.66Q22.16-7.60 22.16-9.96L22.16-9.96Q22.16-12.36 21.48-14.28Q20.80-16.20 19.58-17.58Q18.36-18.96 16.68-19.70Q15-20.44 13-20.44L13-20.44Q8.24-20.44 6.76-16.76L6.76-16.76L6.60-16.76L6.60-20L3.20-20ZM6.60-8.52L6.60-12Q6.60-13.32 7.02-14.50Q7.44-15.68 8.20-16.54Q8.96-17.40 9.98-17.90Q11-18.40 12.16-18.40L12.16-18.40Q13.40-18.40 14.54-17.94Q15.68-17.48 16.52-16.48Q17.36-15.48 17.86-13.88Q18.36-12.28 18.36-10.04L18.36-10.04Q18.36-7.76 17.86-6.16Q17.36-4.56 16.50-3.54Q15.64-2.52 14.52-2.06Q13.40-1.60 12.16-1.60L12.16-1.60Q11.04-1.60 10.04-2.06Q9.04-2.52 8.28-3.42Q7.52-4.32 7.06-5.60Q6.60-6.88 6.60-8.52L6.60-8.52Z M30.76-20L27.36-20L27.36 0L30.76 0L30.76-12.08Q30.76-13.72 31.14-14.86Q31.52-16 32.12-16.72Q32.72-17.44 33.44-17.76Q34.16-18.08 34.84-18.08L34.84-18.08Q35.76-18.08 36.54-17.48Q37.32-16.88 37.68-16.36L37.68-16.36L39.04-18.84Q38.68-19.32 38.18-19.64Q37.68-19.96 37.18-20.14Q36.68-20.32 36.26-20.38Q35.84-20.44 35.64-20.44L35.64-20.44Q33.96-20.44 32.84-19.52Q31.72-18.60 31-16.80L31-16.80L30.76-16.80L30.76-20Z M50-20.44L50-20.44Q52.92-20.44 54.52-19.62Q56.12-18.80 56.86-17.48Q57.60-16.16 57.72-14.44Q57.84-12.72 57.84-10.92L57.84-10.92L57.84 0L54.60 0L54.60-1.96Q53.44-0.84 51.64-0.18Q49.84 0.48 48.04 0.48L48.04 0.48Q46.32 0.48 45-0.12Q43.68-0.72 42.80-1.68Q41.92-2.64 41.48-3.84Q41.04-5.04 41.04-6.28L41.04-6.28Q41.04-7.56 41.52-8.84Q42-10.12 42.96-11.14Q43.92-12.16 45.32-12.80Q46.72-13.44 48.52-13.44L48.52-13.44Q50.32-13.44 51.94-12.74Q53.56-12.04 54.60-10.76L54.60-10.76L54.60-12.48Q54.60-15.76 53.62-17.36Q52.64-18.96 50.04-18.96L50.04-18.96Q48.92-18.96 48.08-18.68Q47.24-18.40 46.58-17.90Q45.92-17.40 45.36-16.66Q44.80-15.92 44.24-15L44.24-15L42.16-17.08Q42.72-17.68 43.34-18.28Q43.96-18.88 44.86-19.36Q45.76-19.84 47-20.14Q48.24-20.44 50-20.44ZM54.60-4.84L54.60-7.92Q54.40-8.40 54.02-9.04Q53.64-9.68 53.04-10.28Q52.44-10.88 51.60-11.30Q50.76-11.72 49.60-11.72L49.60-11.72Q48.44-11.72 47.48-11.26Q46.52-10.80 45.86-10.06Q45.20-9.32 44.84-8.32Q44.48-7.32 44.48-6.24L44.48-6.24Q44.48-4.96 44.94-4.02Q45.40-3.08 46.12-2.42Q46.84-1.76 47.72-1.44Q48.60-1.12 49.40-1.12L49.40-1.12Q50.16-1.12 50.94-1.40Q51.72-1.68 52.42-2.18Q53.12-2.68 53.68-3.36Q54.24-4.04 54.60-4.84L54.60-4.84Z M66.80-9.12L82-9.12L82-9.96Q82-12.64 81.24-14.60Q80.48-16.56 79.18-17.84Q77.88-19.12 76.16-19.76Q74.44-20.40 72.52-20.40L72.52-20.40Q70.48-20.40 68.76-19.70Q67.04-19 65.76-17.66Q64.48-16.32 63.76-14.42Q63.04-12.52 63.04-10.12L63.04-10.12Q63.04-8.12 63.66-6.22Q64.28-4.32 65.54-2.82Q66.80-1.32 68.74-0.42Q70.68 0.48 73.32 0.48L73.32 0.48Q75.88 0.48 78.04-0.42Q80.20-1.32 81.80-3L81.80-3L80.52-4.28Q79.68-3.56 78.94-2.96Q78.20-2.36 77.44-1.96Q76.68-1.56 75.86-1.34Q75.04-1.12 74.04-1.12L74.04-1.12Q72.92-1.12 71.66-1.46Q70.40-1.80 69.32-2.68Q68.24-3.56 67.52-5.12Q66.80-6.68 66.80-9.12L66.80-9.12ZM78.52-10.72L66.80-10.72Q66.80-12.32 67.14-13.82Q67.48-15.32 68.18-16.48Q68.88-17.64 69.96-18.34Q71.04-19.04 72.52-19.04L72.52-19.04Q75.36-19.04 76.94-16.82Q78.52-14.60 78.52-10.72L78.52-10.72Z M97.24-1.60L97.24-1.60Q95.80-1.60 94.46-2.04Q93.12-2.48 92.08-3.46Q91.04-4.44 90.42-6.06Q89.80-7.68 89.80-10.04L89.80-10.04Q89.80-12.48 90.48-14.18Q91.16-15.88 92.18-16.90Q93.20-17.92 94.44-18.38Q95.68-18.84 96.80-18.84L96.80-18.84Q98.64-18.84 100-17.88Q101.36-16.92 101.80-15.52L101.80-15.52L104.56-15.52Q104.16-16.96 103.28-17.90Q102.40-18.84 101.26-19.42Q100.12-20 98.82-20.22Q97.52-20.44 96.32-20.44L96.32-20.44Q93.80-20.44 91.88-19.62Q89.96-18.80 88.64-17.40Q87.32-16 86.66-14.12Q86-12.24 86-10.12L86-10.12Q86-7.88 86.72-5.94Q87.44-4 88.78-2.58Q90.12-1.16 92-0.34Q93.88 0.48 96.24 0.48L96.24 0.48Q98.88 0.48 100.86-0.40Q102.84-1.28 104.20-2.32L104.20-2.32L103.04-3.84Q101.64-2.68 100.26-2.14Q98.88-1.60 97.24-1.60Z M111.52-9.12L126.72-9.12L126.72-9.96Q126.72-12.64 125.96-14.60Q125.20-16.56 123.90-17.84Q122.60-19.12 120.88-19.76Q119.16-20.40 117.24-20.40L117.24-20.40Q115.20-20.40 113.48-19.70Q111.76-19 110.48-17.66Q109.20-16.32 108.48-14.42Q107.76-12.52 107.76-10.12L107.76-10.12Q107.76-8.12 108.38-6.22Q109-4.32 110.26-2.82Q111.52-1.32 113.46-0.42Q115.40 0.48 118.04 0.48L118.04 0.48Q120.60 0.48 122.76-0.42Q124.92-1.32 126.52-3L126.52-3L125.24-4.28Q124.40-3.56 123.66-2.96Q122.92-2.36 122.16-1.96Q121.40-1.56 120.58-1.34Q119.76-1.12 118.76-1.12L118.76-1.12Q117.64-1.12 116.38-1.46Q115.12-1.80 114.04-2.68Q112.96-3.56 112.24-5.12Q111.52-6.68 111.52-9.12L111.52-9.12ZM123.24-10.72L111.52-10.72Q111.52-12.32 111.86-13.82Q112.20-15.32 112.90-16.48Q113.60-17.64 114.68-18.34Q115.76-19.04 117.24-19.04L117.24-19.04Q120.08-19.04 121.66-16.82Q123.24-14.60 123.24-10.72L123.24-10.72Z M131.92-20L131.92 10L135.32 10L135.32-3.28L135.48-3.28Q135.88-2.24 136.54-1.52Q137.20-0.80 138.04-0.36Q138.88 0.08 139.82 0.28Q140.76 0.48 141.72 0.48L141.72 0.48Q143.72 0.48 145.40-0.26Q147.08-1 148.30-2.36Q149.52-3.72 150.20-5.66Q150.88-7.60 150.88-9.96L150.88-9.96Q150.88-12.36 150.20-14.28Q149.52-16.20 148.30-17.58Q147.08-18.96 145.40-19.70Q143.72-20.44 141.72-20.44L141.72-20.44Q136.96-20.44 135.48-16.76L135.48-16.76L135.32-16.76L135.32-20L131.92-20ZM135.32-8.52L135.32-12Q135.32-13.32 135.74-14.50Q136.16-15.68 136.92-16.54Q137.68-17.40 138.70-17.90Q139.72-18.40 140.88-18.40L140.88-18.40Q142.12-18.40 143.26-17.94Q144.40-17.48 145.24-16.48Q146.08-15.48 146.58-13.88Q147.08-12.28 147.08-10.04L147.08-10.04Q147.08-7.76 146.58-6.16Q146.08-4.56 145.22-3.54Q144.36-2.52 143.24-2.06Q142.12-1.60 140.88-1.60L140.88-1.60Q139.76-1.60 138.76-2.06Q137.76-2.52 137-3.42Q136.24-4.32 135.78-5.60Q135.32-6.88 135.32-8.52L135.32-8.52Z M157.56-18.40L154.08-18.40L154.08-20L157.56-20L157.56-26.16L160.96-26.16L160.96-20L165.80-20L165.80-18.40L160.96-18.40L160.96-5.12Q160.96-4.64 161-4.02Q161.04-3.40 161.24-2.86Q161.44-2.32 161.86-1.96Q162.28-1.60 163.04-1.60L163.04-1.60Q164-1.60 164.64-2.32Q165.28-3.04 165.68-3.88L165.68-3.88L167.56-1.96Q165.60 0 163.12 0L163.12 0Q162.08 0 161.08-0.36Q160.08-0.72 159.30-1.46Q158.52-2.20 158.04-3.36Q157.56-4.52 157.56-6.08L157.56-6.08L157.56-18.40Z M178.44-20.44L178.44-20.44Q181.36-20.44 182.96-19.62Q184.56-18.80 185.30-17.48Q186.04-16.16 186.16-14.44Q186.28-12.72 186.28-10.92L186.28-10.92L186.28 0L183.04 0L183.04-1.96Q181.88-0.84 180.08-0.18Q178.28 0.48 176.48 0.48L176.48 0.48Q174.76 0.48 173.44-0.12Q172.12-0.72 171.24-1.68Q170.36-2.64 169.92-3.84Q169.48-5.04 169.48-6.28L169.48-6.28Q169.48-7.56 169.96-8.84Q170.44-10.12 171.40-11.14Q172.36-12.16 173.76-12.80Q175.16-13.44 176.96-13.44L176.96-13.44Q178.76-13.44 180.38-12.74Q182-12.04 183.04-10.76L183.04-10.76L183.04-12.48Q183.04-15.76 182.06-17.36Q181.08-18.96 178.48-18.96L178.48-18.96Q177.36-18.96 176.52-18.68Q175.68-18.40 175.02-17.90Q174.36-17.40 173.80-16.66Q173.24-15.92 172.68-15L172.68-15L170.60-17.08Q171.16-17.68 171.78-18.28Q172.40-18.88 173.30-19.36Q174.20-19.84 175.44-20.14Q176.68-20.44 178.44-20.44ZM183.04-4.84L183.04-7.92Q182.84-8.40 182.46-9.04Q182.08-9.68 181.48-10.28Q180.88-10.88 180.04-11.30Q179.20-11.72 178.04-11.72L178.04-11.72Q176.88-11.72 175.92-11.26Q174.96-10.80 174.30-10.06Q173.64-9.32 173.28-8.32Q172.92-7.32 172.92-6.24L172.92-6.24Q172.92-4.96 173.38-4.02Q173.84-3.08 174.56-2.42Q175.28-1.76 176.16-1.44Q177.04-1.12 177.84-1.12L177.84-1.12Q178.60-1.12 179.38-1.40Q180.16-1.68 180.86-2.18Q181.56-2.68 182.12-3.36Q182.68-4.04 183.04-4.84L183.04-4.84Z"/></g>
</svg>
</g><g opacity="1" transform="rotate(0 613.3545 396.8743)">
<svg width="1.4912" height="101.2515" x="613.3545" y="396.8743" version="1.1" preserveAspectRatio="none" viewBox="0 0 1.4912 101.2515">
  <defs><rect x="0" y="0" width="1.4912" height="101.2515" rx="0px" ry="0px" id="id-tBXipXk0b"></rect></defs><use class="companyName shapeStroke-str" style="stroke-width:0;" xlink:href="#id-tBXipXk0b"></use>
</svg>
</g></svg>